<svg height="3000" width="3000" xmlns:cc="http://creativecommons.org/ns#" xmlns:dc="http://purl.org/dc/elements/1.1/" xmlns:xlink="http://www.w3.org/1999/xlink" style="fill:none;stroke:none;" viewBox="0 0 3000 3000" xmlns:sodipodi="http://sodipodi.sourceforge.net/DTD/sodipodi-0.dtd" xmlns="http://www.w3.org/2000/svg" xmlns:rdf="http://www.w3.org/1999/02/22-rdf-syntax-ns#" xmlns:svg="http://www.w3.org/2000/svg" xmlns:osb="http://www.openswatchbook.org/uri/2009/osb" version="1.1"> <title></title> <defs> <linearGradient id="grad_rock"> <stop offset="0" stop-opacity="1" stop-color="#a32126"/> <stop offset="0.27" stop-opacity="1" stop-color="#a72525"/> <stop offset="0.57" stop-opacity="1" stop-color="#b53324"/> <stop offset="0.89" stop-opacity="1" stop-color="#ca4621"/> <stop offset="1" stop-opacity="1" stop-color="#d34f1f"/> </linearGradient> <linearGradient id="grad_fire_1"> <stop offset="0" stop-opacity="1" stop-color="#ff0000"/> <stop offset="0.25" stop-opacity="1" stop-color="#ff0301"/> <stop offset="0.42" stop-opacity="1" stop-color="#fd0c05"/> <stop offset="0.57" stop-opacity="1" stop-color="#fb1b0b"/> <stop offset="0.7" stop-opacity="1" stop-color="#f83013"/> <stop offset="0.82" stop-opacity="1" stop-color="#f34c1e"/> <stop offset="0.87" stop-opacity="1" stop-color="#f15a24"/> </linearGradient> <linearGradient id="grad_fire_2"> <stop offset="0" stop-opacity="1" stop-color="#fcee21"/> <stop offset="0.15" stop-opacity="1" stop-color="#f8b922"/> <stop offset="0.41" stop-opacity="1" stop-color="#f26523"/> <stop offset="0.59" stop-opacity="1" stop-color="#ee3024"/> <stop offset="0.68" stop-opacity="1" stop-color="#ed1c24"/> </linearGradient> <linearGradient id="grad_fire_3"> <stop offset="0" stop-opacity="1" stop-color="#f15a24"/> <stop offset="0.16" stop-opacity="1" stop-color="#f15f24"/> <stop offset="0.34" stop-opacity="1" stop-color="#f36d22"/> <stop offset="0.53" stop-opacity="1" stop-color="#f58420"/> <stop offset="0.63" stop-opacity="1" stop-color="#f7931e"/> </linearGradient> <linearGradient x1="367.07" x2="992.3" y1="2493.58" id="grad_rock" y2="1966.09" xlink:href="#grad_rock" gradientUnits="userSpaceOnUse"/> <linearGradient x1="684.75" x2="2627.41" y1="2475.74" id="grad_fire_1" y2="472.99" xlink:href="#grad_fire_1" gradientUnits="userSpaceOnUse"/> <linearGradient x1="615.52" x2="2285.78" y1="2365.48" id="grad_fire_2" y2="833.69" xlink:href="#grad_fire_2" gradientUnits="userSpaceOnUse"/> <linearGradient x1="500.73" x2="1881.52" y1="2444.82" id="grad_fire_3" y2="1169.74" xlink:href="#grad_fire_3" gradientUnits="userSpaceOnUse"/> <path sodipodi:nodetypes="cccccccczccczc" id="meteor_outer_shape" style="stroke:none;" d="M 1262.71,2740.59 C 1283.69,2726.12 1303.9,2710.65 1323.35,2694.19 1323.35,2694.19 2854,1595.91 2854,1595.91 2854,1595.91 1771.25,1828.15 1771.25,1828.15 1771.25,1828.15 2632.42,283 2632.42,283 2632.42,283 1224.76,1081.35 1224.76,1081.35 1224.76,1081.35 1457.5,322.57 1457.5,322.57 1457.5,322.57 325.5,1519.57 325.5,1519.57 290.909,1550.15 259.116,1583.76 230.5,1620 230.5,1620 190.68,1675.26 190.68,1675.26 110.53,1797.48 63.86,1944 63.86,2101.49 63.86,2528.69 407.16,2875 830.65,2875 982.8,2875.2 1131.54,2829.6 1257.45,2744.18 1257.45,2744.18 1259.53,2746.28 1259.53,2746.28 1259.53,2746.28 1262.71,2740.59 1262.71,2740.59 Z"/> </defs> <sodipodi:namedview pagecolor="#ffffff" borderlayer="true" bordercolor="#666666"/> <metadata> <rdf:RDF> <cc:Work> <dc:format>image/svg+xml</dc:format> <dc:type rdf:resource="http://purl.org/dc/dcmitype/MovingImage"/> <dc:title></dc:title> </cc:Work> </rdf:RDF> </metadata> <g transform="translate(7.10543e-15 7.10543e-15)"> <g id="meteor_shaking_effect" opacity="1"> <g transform="translate(-18.75 46.875)"> <g transform-origin="280 2500"> <g id="meteor_layers_complete" opacity="1"> --> <g fill="url(#grad_fire_2)" id="meteor_fire_1" transform="matrix(1, 0, 0, 1, 0, 0)" opacity="1"> <use xlink:href="#meteor_outer_shape" /> </g> <g fill="url(#grad_fire_2)" transform="matrix(1, 0, 0, 1, 0, 0)" id="meteor_fire_2" opacity="1" stroke-opacity="1" stroke-width="1"> <path sodipodi:nodetypes="cccccccczccczc" style="stroke:none;" d="M 1103.41,2720 C 1120.9,2707.95 1137.74,2695.07 1153.95,2681.34 1153.95,2681.34 2429.49,1766.1 2429.49,1766.1 2429.49,1766.1 1527.19,1959.64 1527.19,1959.64 1527.19,1959.64 2244.84,672 2244.84,672 2244.84,672 1071.79,1337.29 1071.79,1337.29 1071.79,1337.29 1265.79,704.98 1265.79,704.98 1265.79,704.98 322.44,1702.48 322.44,1702.48 293.615,1727.97 267.126,1755.98 243.29,1786.18 243.29,1786.18 210.1,1832.18 210.1,1832.18 143.31,1934.03 104.42,2056.12 104.42,2187.37 104.42,2543.37 390.5,2831.96 743.42,2831.96 870.175,2832.12 994.094,2794.14 1099,2723 1099,2723 1100.74,2724.75 1100.74,2724.75 1100.74,2724.75 1103.41,2720 1103.41,2720 Z"/> </g> <g fill="url(#grad_fire_3)" transform="matrix(1, 0, 0, 1, 0, 0)" id="meteor_fire_3" opacity="1"> <path sodipodi:nodetypes="cccccccczczczc" style="stroke:none;" d="M 934.75,2688.46 C 948.89,2678.72 962.507,2668.3 975.6,2657.21 975.6,2657.21 2006.66,1917.39 2006.66,1917.39 2006.66,1917.39 1277.31,2073.83 1277.31,2073.83 1277.31,2073.83 1857.4,1033 1857.4,1033 1857.4,1033 909.19,1570.78 909.19,1570.78 909.19,1570.78 1066,1059.66 1066,1059.66 1066,1059.66 303.43,1866 303.43,1866 280.122,1886.6 258.704,1909.24 239.43,1933.66 239.43,1933.66 212.6,1970.88 212.6,1970.88 156.688,2056.17 126.988,2156.01 127.19,2258 127.19,2545.76 358.44,2779 643.71,2779 746.2,2779.13 846.397,2748.42 931.21,2690.88 931.21,2690.88 932.61,2692.3 932.61,2692.3 932.61,2692.3 934.75,2688.46 934.75,2688.46 Z"/> </g> <g fill="#fcee21" transform="matrix(1, 0, 0, 1, 0, 0)" id="meteor_flicker_bot" opacity="0.83" fill-opacity="0.4627"> <use xlink:href="#meteor_outer_shape" /> <animate repeatCount="indefinite" dur="0.8" attributeName="opacity" values="0;1;0;1;0"/> </g> <g fill="url(#grad_rock)" transform="matrix(1, 0, 0, 1, 0, 0)" id="meteor_rock_component" opacity="1"> <ellipse rx="409" style="stroke:none;" cx="606" cy="2292" ry="409"/> </g> <g fill="#fcee21" transform="matrix(1, 0, 0, 1, 0, 0)" id="meteor_flicker_top" opacity="0.83" fill-opacity="0.2078"> <animate repeatCount="indefinite" dur="0.8" attributeName="opacity" values="0;1;0;1;0"/> <use xlink:href="#meteor_outer_shape" /> </g> </g> <animateTransform attributeName="transform" type="rotate" values="-4;4;-4" dur="1s" repeatCount="indefinite"/> </g> <animateMotion repeatCount="indefinite" calcMode="spline" dur="1" keyTimes="0; 0.25; 0.75; 1" attributeName="transform" keySplines="0 0 1 1; 0 0 1 1; 0 0 1 1" path="M 0,0 C 0,0 40,-100 40,-100 40,-100 -40,100 -40,100 -40,100 0,0 0,0"/> </g> </g> <animateTransform attributeName="transform" type="translate" values="-100 100; 100 -100; -100 100" dur="0.08" repeatCount="indefinite"/> </g> </svg> 
