<?xml version="1.0" encoding="UTF-8" standalone="no"?>
<svg
   width="747.82629pt"
   height="722.21661pt"
   version="1.1"
   viewBox="0 0 747.82629 722.21661"
   id="svg15"
   sodipodi:docname="mail_sent.svg"
   inkscape:version="1.3 (0e150ed, 2023-07-21)"
   xmlns:inkscape="http://www.inkscape.org/namespaces/inkscape"
   xmlns:sodipodi="http://sodipodi.sourceforge.net/DTD/sodipodi-0.dtd"
   xmlns:xlink="http://www.w3.org/1999/xlink"
   xmlns="http://www.w3.org/2000/svg"
   xmlns:svg="http://www.w3.org/2000/svg">
  <defs
     id="defs15">
    <linearGradient
       id="e"
       x2="0"
       y1="41.915001"
       y2="91.019997"
       gradientUnits="userSpaceOnUse"
       xlink:href="#a"
       gradientTransform="matrix(0.75,0,0,0.75,773.5986,591.01628)" />
    <linearGradient
       id="a">
      <stop
         stop-color="#dce7ec"
         offset="0"
         id="stop1" />
      <stop
         stop-color="#839297"
         offset="1"
         id="stop2" />
    </linearGradient>
    <linearGradient
       id="d"
       x2="0"
       y1="12.521"
       y2="84.920998"
       gradientUnits="userSpaceOnUse"
       xlink:href="#a"
       gradientTransform="matrix(0.75,0,0,0.75,773.5986,591.01628)" />
    <linearGradient
       id="c"
       x2="0"
       y1="15.956"
       y2="77.124001"
       gradientUnits="userSpaceOnUse"
       xlink:href="#a"
       gradientTransform="matrix(0.75,0,0,0.75,773.5986,591.01628)" />
    <radialGradient
       id="b"
       cx="792.81"
       cy="316.91"
       r="91.468002"
       gradientTransform="matrix(0.962925,0,0,0.609045,61.3386,429.76628)"
       gradientUnits="userSpaceOnUse">
      <stop
         stop-color="#fff"
         offset="0"
         id="stop7" />
      <stop
         stop-color="#585858"
         offset="1"
         id="stop8" />
    </radialGradient>
  </defs>
  <sodipodi:namedview
     id="namedview15"
     pagecolor="#ffffff"
     bordercolor="#000000"
     borderopacity="0.25"
     inkscape:showpageshadow="2"
     inkscape:pageopacity="0.0"
     inkscape:pagecheckerboard="0"
     inkscape:deskcolor="#d1d1d1"
     inkscape:document-units="pt"
     inkscape:zoom="0.68389085"
     inkscape:cx="492.03758"
     inkscape:cy="538.82867"
     inkscape:window-width="1920"
     inkscape:window-height="1019"
     inkscape:window-x="0"
     inkscape:window-y="0"
     inkscape:window-maximized="1"
     inkscape:current-layer="svg15" />
  <g
     id="g15"
     transform="matrix(2.3285759,2.7627232,-2.7627232,2.3285759,-5.5423987,-3198.0094)"
     style="stroke-width:5.12377;stroke-dasharray:none">
    <path
       d="m 778.5456,594.79561 h 88.485 v 55.96875 h -88.485 z"
       fill="url(#b)"
       stroke="#616b6d"
       stroke-linejoin="round"
       stroke-width="3.0912"
       id="path4-3"
       style="fill:url(#b);stroke-width:5.12377;stroke-dasharray:none" />
    <path
       d="m 778.5456,594.8514 v 51.64501 l 0.0239,4.212 44.2245,-27.9285 -44.2005,-27.92851 h -0.0478 z"
       fill="url(#c)"
       stroke="#000000"
       stroke-linejoin="round"
       stroke-width="3.0912"
       id="path5-6"
       style="fill:url(#c);stroke-width:5.12377;stroke-dasharray:none" />
    <path
       d="m 867.0336,594.94411 v 51.645 l -0.0238,4.21199 -44.2245,-27.92849 44.2005,-27.9285 z"
       fill="url(#d)"
       stroke="#000000"
       stroke-linejoin="round"
       stroke-width="3.0912"
       id="path6-7"
       style="fill:url(#d);stroke-width:5.12377;stroke-dasharray:none" />
    <path
       d="m 810.2586,620.74253 -31.6845,30.0105 -0.0239,0.0957 h 88.5 l -0.0479,-0.0957 -31.6845,-30.0105 c -8.013,-7.59 -16.8225,-7.7985 -25.056,0 z"
       fill="url(#e)"
       stroke="#000000"
       stroke-linejoin="round"
       stroke-width="3.0912"
       id="path7-5"
       style="fill:url(#e);stroke-width:5.12377;stroke-dasharray:none" />
    <path
       d="m 810.23835,621.87578 -31.64925,-26.91375 -0.0239,-0.0859 h 88.395 l -0.0478,0.0859 -31.64924,26.91375 c -8.004,6.80663 -16.80375,6.9936 -25.0275,0 z"
       fill="#c6d2d7"
       stroke="#000000"
       stroke-linejoin="round"
       stroke-width="3.0912"
       id="path8-3"
       style="stroke-width:5.12377;stroke-dasharray:none" />
  </g>
  <path
     d="m 552.8363,0.14168492 c 12.24,-1.37000002 22.59,7.47999998 31.84,14.25000008 37.12,34.19 60.28,86.379995 50.87,137.259995 8.75,8.37 15.5,18.58 23.42,27.58 19.62,3.93 37.85,15.01 49.05,31.83 36.93,51.04 32.64,130.51 -15.12,173.29 -2.3,3.9 -4.04,8.14 -5.62,12.38 19.9,8.21 40.31,15.26 60.55,22.61 -28.8,5.78 -58.46,7.6 -86.92,14.68 -56.24,56.24 -139.37,72.66 -216.1,74.12 -17.76,29.15 -37.41,60.23 -36.82,95.72 -29.8,-10.96 -50.2,-42.16 -49.92,-73.7 -6.35,-4.58 -11.93,-10.11 -17.58,-15.49 -15.86,27.39 -33.29,56.34 -32.5,89.19 -29.8,-10.96 -50.21,-42.16 -49.91,-73.71 -18.47,-11.87 -32.03,-33.08 -27.26,-55.83 -14.85,6.3 -29.72,12.54 -44.34,19.38 -4.26,-8.62 -8.27,-17.41 -11.04,-26.63 17.04,-6.69 33.81,-14.16 50.42,-21.88 -21.76,-27.03 -43.71,-56.93 -48.05,-92.75 -12.97,5.39 -24.64,13.45 -37.33,19.48 10.29,-14.16 20.32,-28.52 29.8,-43.23 -32.49,13.67 -64.71,28.27 -97.519999,41 -7.75,-24.8 -17.66,-48.88 -25.63,-73.61 38.28,-4.33 76.349999,-10.33 114.579999,-15.14 -36.09,-9.71 -72.329999,-18.95 -108.399999,-28.79 2.11,-9.3 8.49,-16.88 11.61,-25.83 6.66,-1.43 13.36,-2.82 19.67,-5.46 -3.06,-5.19 -7.87,-10.06 -8.98,-15.99 4.63,-11.7 11.24,-22.55 15.94,-34.25 34.229999,23.81 66.629999,50.15 100.659999,74.25 56.96,-116.78 199.64,-181.499995 325.53,-156.479995 -22.63,-17.01 -48.99,-28.95 -69.94,-48.17 -4.9,-4.29 -4.99,-14.16 2.38,-15.83 21.39,-7.82 43.79,2.16 63.14,11.37 40.89,19.24 76.7,51.6 94.76,93.549995 -1.65,-35.029995 -22.44,-66.669995 -39.79,-96.519995 -5.55,-10.61 -15.47,-19.96 -15.45,-32.65000008 M 485.7663,104.95168 c -0.94,14.71 -6.8,28.43 -15.99,39.84 -8.67,5.31 -19.61,5.25 -28.19,-0.27 l 0.88,-0.06 c -10.38,-9.84 -15.01,-23.85 -17.21,-37.65 -7.2,1.29 -14.45,2.27 -21.72,3.05 1.47,13.86 1.8,28.37 -5,40.91 -6.62,7.98 -18.41,11.13 -27.5,5.07 l -0.73,0.23 c -8.86,-6.27 -16.87,-13.86 -21.48,-23.86 -1.33,-3.63 -5.17,-1.97 -7.71,-0.76 -46.06,21.63 -88.08,54.2 -115.85,97.25 -26.38,39.31 -37.35,90.29 -23.06,136.03 5.06,19.97 16.3,38.02 30.03,53.2 5.66,-7.54 12.36,-14.28 20.17,-19.6 l -0.77,-0.16 c 30.86,-20.13 69.63,-31.01 91.84,-62.26 -10.66,36.17 -47.12,54.35 -74.61,76.38 -12.54,9.67 -26.49,23.01 -25.15,40.24 20.38,-25.08 51.43,-39.22 81.56,-48.88 -23.54,20.9 -53.58,37.14 -66.88,67.15 -5.59,10.91 -0.4,26.07 7.81,32.69 10.26,-47.18 54.49,-76.66 95.1,-96.79 -26.74,27.63 -56.12,55.01 -70.24,91.76 -9.66,21.09 -9.57,46.33 -0.77,67.65 10.93,-66.83 73.15,-107.45 101.2,-166.18 12.88,-22.46 15.22,-49.32 11.09,-74.56 13.19,37.02 1.54,76.95 -14.42,111.16 -8.26,14.87 -16.49,29.78 -25.71,44.09 44.49,7.18 90.25,9.08 134.88,2.11 44.16,-4.71 88.81,-17.56 125.15,-43.87 -20.25,3.93 -40.65,8.01 -61.31,8.7 2.14,-8.43 5.98,-16.31 8.22,-24.71 4.96,-11.64 8.91,-23.67 13.69,-35.37 -21.31,18.18 -52.18,26.09 -79.02,16.45 -46.06,-13.68 -72.86,-63.38 -72.82,-109.31 -3.39,-43.84 19.1,-87.11 53.25,-113.7 14.64,-13.09 33.24,-20.15 49.91,-30.08 13.39,-4.7 26.98,-9.2 40.37,-13.89 -4.4,-5.64 -9.33,-11.06 -16.38,-13.29 -22.98,-9.92 -47.56,-17.4 -72.63,-18.71 m -4,110.67 c -36.15,35.34 -38.85,97.17 -10.37,138.05 15.29,23.54 46.82,40.17 74.29,29.19 24.05,-4.9 39.35,-27.39 50.87,-47.33 5.16,6.51 8.89,14.01 13.9,20.63 12.44,17 36.78,29.01 56.87,17.79 32.99,-16.05 45.44,-57.64 43.05,-92 -1.41,-32.3 -17.19,-69.31 -50.01,-80.47 -30.06,-7.14 -51.43,19.31 -64.12,42.42 -10.43,-15.54 -20.39,-32.64 -38.08,-40.99 -24.22,-15.02 -57.93,-8.16 -76.4,12.71 m 122.82,174.12 c -3.95,10.55 -8.28,21 -11.38,31.84 23.96,-2.29 47.77,-6.51 71.49,-10.59 -20.2,-6.61 -39.65,-15.45 -60.11,-21.25 m -239.85,112.26 c -1.25,6.01 6,-1.35 0,0 m 23.71,3.68 c -7.24,19.25 -5.84,41.54 1.85,60.43 2.56,-21.72 12.72,-41.52 24.77,-59.43 -8.89,-0.16 -17.76,-0.32 -26.62,-1 z"
     id="path1" />
  <path
     d="m 485.7663,104.95168 c 25.07,1.31 49.65,8.79 72.63,18.71 7.05,2.23 11.98,7.65 16.38,13.29 -13.39,4.69 -26.98,9.19 -40.37,13.89 -21.42,-3.16 -42.83,-7.66 -64.63,-6.05 9.19,-11.41 15.05,-25.13 15.99,-39.84 z"
     fill="#f9e79d"
     id="path2" />
  <path
     d="m 403.5363,109.86168 c 7.27,-0.78 14.52,-1.76 21.72,-3.05 2.2,13.8 6.83,27.81 17.21,37.65 l -0.88,0.06 c -14.43,1.2 -28.97,2.76 -43.05,6.25 6.8,-12.54 6.47,-27.05 5,-40.91 z"
     fill="#f9e79d"
     id="path3" />
  <path
     d="m 341.1163,131.45168 c 2.54,-1.21 6.38,-2.87 7.71,0.76 4.61,10 12.62,17.59 21.48,23.86 -52.35,14.58 -103.21,37.44 -145.04,72.63 27.77,-43.05 69.79,-75.62 115.85,-97.25 z"
     fill="#f9e79d"
     id="path4" />
  <path
     d="m 398.5363,150.77168 c 14.08,-3.49 28.62,-5.05 43.05,-6.25 8.58,5.52 19.52,5.58 28.19,0.27 21.8,-1.61 43.21,2.89 64.63,6.05 -16.67,9.93 -35.27,16.99 -49.91,30.08 -34.15,26.59 -56.64,69.86 -53.25,113.7 -0.04,45.93 26.76,95.63 72.82,109.31 26.84,9.64 57.71,1.73 79.02,-16.45 -4.78,11.7 -8.73,23.73 -13.69,35.37 -21.6,5.78 -43.64,9.84 -65.86,12.25 -26.06,2.89 -50.08,-11.22 -75.94,-11.05 -14.09,0.95 -25.31,11.42 -39.43,12.48 15.96,-34.21 27.61,-74.14 14.42,-111.16 4.13,25.24 1.79,52.1 -11.09,74.56 -28.05,58.73 -90.27,99.35 -101.2,166.18 -8.8,-21.32 -8.89,-46.56 0.77,-67.65 14.12,-36.75 43.5,-64.13 70.24,-91.76 -40.61,20.13 -84.84,49.61 -95.1,96.79 -8.21,-6.62 -13.4,-21.78 -7.81,-32.69 13.3,-30.01 43.34,-46.25 66.88,-67.15 -30.13,9.66 -61.18,23.8 -81.56,48.88 -1.34,-17.23 12.61,-30.57 25.15,-40.24 27.49,-22.03 63.95,-40.21 74.61,-76.38 -22.21,31.25 -60.98,42.13 -91.84,62.26 -19.6,-5.11 -34.06,-21.09 -49.43,-33.44 -14.29,-45.74 -3.32,-96.72 23.06,-136.03 41.83,-35.19 92.69,-58.05 145.04,-72.63 l 0.73,-0.23 c 9.09,6.06 20.88,2.91 27.5,-5.07 z"
     fill="#ffcc00"
     id="path5" />
  <path
     d="m 481.7663,215.62168 c 18.47,-20.87 52.18,-27.73 76.4,-12.71 17.69,8.35 27.65,25.45 38.08,40.99 12.69,-23.11 34.06,-49.56 64.12,-42.42 32.82,11.16 48.6,48.17 50.01,80.47 2.39,34.36 -10.06,75.95 -43.05,92 -19.29,-1.71 -34.16,-16.37 -44.89,-31.37 -3.71,4.76 -7.13,9.88 -11.98,13.58 -5.01,-6.62 -8.74,-14.12 -13.9,-20.63 -11.52,19.94 -26.82,42.43 -50.87,47.33 -34.67,-4.16 -61.93,-33.15 -72.02,-65.45 -11.7,-33.39 -6.99,-70.31 8.1,-101.79 m 78.53,47.72 c -17,14.54 -15.07,42.71 -2.79,59.63 17.61,10.99 28.19,-14.99 25.6,-28.9 -4.26,-1.47 -10.59,0.45 -13.87,-2.89 3.66,-4.36 7.87,-8.3 10.96,-13.12 0.17,-9.49 -10.18,-20.88 -19.9,-14.72 m 111.6,52.99 c 12.58,15.44 22.67,-12.01 20.32,-23.37 -3.81,-0.86 -14.68,-0.31 -8.15,-5.56 10.2,-6.33 4.41,-17.16 -2.23,-23.12 -20.73,5.11 -18.54,37.05 -9.94,52.05 z"
     fill="#ffffff"
     id="path6" />
  <path
     d="m 471.3963,353.67168 c -28.48,-40.88 -25.78,-102.71 10.37,-138.05 -15.09,31.48 -19.8,68.4 -8.1,101.79 10.09,32.3 37.35,61.29 72.02,65.45 -27.47,10.98 -59,-5.65 -74.29,-29.19 z"
     fill="#d0d2d3"
     id="path7" />
  <path
     d="m 560.2963,263.34168 c 9.72,-6.16 20.07,5.23 19.9,14.72 -3.09,4.82 -7.3,8.76 -10.96,13.12 3.28,3.34 9.61,1.42 13.87,2.89 2.59,13.91 -7.99,39.89 -25.6,28.9 -12.28,-16.92 -14.21,-45.09 2.79,-59.63 z"
     id="path8" />
  <path
     d="m 671.8963,316.33168 c -8.6,-15 -10.79,-46.94 9.94,-52.05 6.64,5.96 12.43,16.79 2.23,23.12 -6.53,5.25 4.34,4.7 8.15,5.56 2.35,11.36 -7.74,38.81 -20.32,23.37 z"
     id="path9" />
  <path
     d="m 610.4563,356.16168 c 4.85,-3.7 8.27,-8.82 11.98,-13.58 10.73,15 25.6,29.66 44.89,31.37 -20.09,11.22 -44.43,-0.79 -56.87,-17.79 z"
     fill="#d0d2d3"
     id="path10" />
  <path
     d="m 202.2063,364.73168 c 15.37,12.35 29.83,28.33 49.43,33.44 l 0.77,0.16 c -7.81,5.32 -14.51,12.06 -20.17,19.6 -13.73,-15.18 -24.97,-33.23 -30.03,-53.2 z"
     fill="#ff9900"
     id="path11" />
  <path
     d="m 604.5863,389.74168 c 20.46,5.8 39.91,14.64 60.11,21.25 -23.72,4.08 -47.53,8.3 -71.49,10.59 3.1,-10.84 7.43,-21.29 11.38,-31.84 z"
     fill="#f05a28"
     id="path12" />
  <path
     d="m 503.5363,435.10168 c 22.22,-2.41 44.26,-6.47 65.86,-12.25 -2.24,8.4 -6.08,16.28 -8.22,24.71 20.66,-0.69 41.06,-4.77 61.31,-8.7 -36.34,26.31 -80.99,39.16 -125.15,43.87 -44.63,6.97 -90.39,5.07 -134.88,-2.11 9.22,-14.31 17.45,-29.22 25.71,-44.09 14.12,-1.06 25.34,-11.53 39.43,-12.48 25.86,-0.17 49.88,13.94 75.94,11.05 z"
     fill="#ff9900"
     id="path13" />
  <path
     d="m 364.7363,502.00168 c 6,-1.35 -1.25,6.01 0,0 z"
     fill="#7c6400"
     id="path14" />
  <path
     d="m 388.4463,505.68168 c 8.86,0.68 17.73,0.84 26.62,1 -12.05,17.91 -22.21,37.71 -24.77,59.43 -7.69,-18.89 -9.09,-41.18 -1.85,-60.43 z"
     fill="#ffcc00"
     id="path15" />
</svg>
